<?xml version="1.0" encoding="utf-8"?>
<!-- Generator: Adobe Illustrator 22.0.1, SVG Export Plug-In . SVG Version: 6.00 Build 0)  -->
<svg version="1.1" id="Layer_1" xmlns="http://www.w3.org/2000/svg" xmlns:xlink="http://www.w3.org/1999/xlink" x="0px" y="0px"
	 viewBox="0 0 45 50" style="enable-background:new 0 0 45 50;" xml:space="preserve">
<style type="text/css">
	.st0{display:none;}
	.st1{display:inline;fill:#FF7F50;}
	.st2{opacity:0.4;}
	.st3{fill:#444659;}
</style>
<g class="st0">
	<rect id="Rectangle-4" x="10" y="10" class="st1" width="25" height="2.5"/>
	<rect id="Rectangle-4_1_" x="10" y="17.5" class="st1" width="25" height="2.5"/>
	<rect id="Rectangle-4_2_" x="10" y="25" class="st1" width="25" height="2.5"/>
	<rect id="Rectangle-4_3_" x="10" y="32.5" class="st1" width="12.5" height="2.5"/>
</g>
<g class="st0">
	<rect id="Rectangle-4_7_" x="10" y="10" class="st1" width="25" height="12.5"/>
	<rect id="Rectangle-4-Copy-2_2_" x="10" y="27.5" class="st1" width="25" height="2.5"/>
</g>
<g class="st0">
	<polygon class="st1" points="15,10 10,10 10,15 10,20 15,20 15,15 30,15 30,22.5 22.5,22.5 17.5,22.5 17.5,32.5 22.5,32.5 
		22.5,27.5 35,27.5 35,26.3 35,22.5 35,15 35,11.3 35,10 	"/>
	<rect id="Rectangle-5-Copy-3_2_" x="17.5" y="35" class="st1" width="5" height="5"/>
</g>
<g class="st0">
	<rect id="Rectangle-4_8_" x="10" y="10" class="st1" width="10" height="12.5"/>
	<rect id="Rectangle-4-Copy-2_3_" x="10" y="27.5" class="st1" width="10" height="12.5"/>
	<rect id="Rectangle-4_4_" x="25" y="10" class="st1" width="10" height="12.5"/>
	<polygon class="st1" points="25,27.5 25,40 30,40 30,35 35,35 35,27.5 	"/>
</g>
<g>
	<g class="st2">
		<path class="st3" d="M17.2,39.9c-3.7-1-5.5-3.4-5.5-7.1v-3c0-2.1-0.9-3.2-2.7-3.2v-3.2c1.8,0,2.7-1,2.7-3v-3.2
			c0-1.9,0.5-3.4,1.4-4.6c0.9-1.2,2.3-2,4.1-2.5l0.9,2.5c-0.8,0.3-1.4,0.8-1.8,1.5c-0.4,0.7-0.6,1.7-0.6,2.9v3.2
			c0,2.3-0.9,3.9-2.7,4.8c1.8,0.9,2.7,2.6,2.7,4.9v3.2c0.1,2.4,0.8,3.8,2.4,4.4L17.2,39.9z"/>
		<path class="st3" d="M26.9,37.4c1.5-0.5,2.3-2,2.4-4.4v-3.2c0-2.3,0.9-3.9,2.8-4.8c-1.9-0.9-2.8-2.5-2.8-4.9V17
			c0-2.4-0.8-3.8-2.4-4.4l0.9-2.5c1.8,0.5,3.2,1.3,4.1,2.5s1.4,2.7,1.4,4.5v3.3c0,2,0.9,3,2.7,3v3.2c-1.8,0-2.7,1.1-2.7,3.2v3.3
			c-0.1,3.6-1.9,5.8-5.5,6.8L26.9,37.4z"/>
	</g>
	<g>
		<path class="st3" d="M0,0v50h30l15-15V0H0z M32.5,44v-6.5H39L32.5,44z M42.5,35H30v12.5H2.5v-45h40V35z"/>
	</g>
</g>
</svg>
