<?xml version="1.0" encoding="utf-8"?>
<!-- Generator: Adobe Illustrator 22.0.0, SVG Export Plug-In . SVG Version: 6.00 Build 0)  -->
<svg version="1.1" id="Layer_1" xmlns="http://www.w3.org/2000/svg" xmlns:xlink="http://www.w3.org/1999/xlink" x="0px" y="0px"
	 viewBox="0 0 45 50" style="enable-background:new 0 0 45 50;" xml:space="preserve">
<style type="text/css">
	.st0{display:none;}
	.st1{display:inline;fill:#FF7F50;}
	.st2{fill:#FF7F50;}
	.st3{fill:#22232C;}
</style>
<g class="st0">
	<rect id="Rectangle-4" x="10" y="10" class="st1" width="25" height="2.5"/>
	<rect id="Rectangle-4_1_" x="10" y="17.5" class="st1" width="25" height="2.5"/>
	<rect id="Rectangle-4_2_" x="10" y="25" class="st1" width="25" height="2.5"/>
	<rect id="Rectangle-4_3_" x="10" y="32.5" class="st1" width="12.5" height="2.5"/>
</g>
<g class="st0">
	<rect id="Rectangle-4_7_" x="10" y="10" class="st1" width="25" height="12.5"/>
	<rect id="Rectangle-4-Copy-2_2_" x="10" y="27.5" class="st1" width="25" height="2.5"/>
</g>
<g>
	<g>
		<polygon class="st2" points="15,10 10,10 10,15 10,20 15,20 15,15 30,15 30,22.5 22.5,22.5 17.5,22.5 17.5,32.5 22.5,32.5 
			22.5,27.5 35,27.5 35,26.3 35,22.5 35,15 35,11.3 35,10 		"/>
		<rect id="Rectangle-5-Copy-3_2_" x="17.5" y="35" class="st2" width="5" height="5"/>
	</g>
	<g>
		<path class="st3" d="M0,0v50h30l15-15V0H0z M32.5,44v-6.5H39L32.5,44z M42.5,35H30v12.5H2.5v-45h40V35z"/>
	</g>
</g>
<g class="st0">
	<rect id="Rectangle-4_8_" x="10" y="10" class="st1" width="10" height="12.5"/>
	<rect id="Rectangle-4-Copy-2_3_" x="10" y="27.5" class="st1" width="10" height="12.5"/>
	<rect id="Rectangle-4_4_" x="25" y="10" class="st1" width="10" height="12.5"/>
	<polygon class="st1" points="25,27.5 25,40 30,40 30,35 35,35 35,27.5 	"/>
</g>
</svg>
